<svg width="400" height="400" viewBox="0 0 400 400" fill="none" xmlns="http://www.w3.org/2000/svg">
<g clip-path="url(#clip0_13_7)">
<path d="M262.927 75H312.868V124.941H262.927V75Z" fill="black"/>
<path d="M287.898 75H337.839V124.941H287.898V75Z" fill="#F7D046"/>
<path d="M63.1609 75H113.102V124.941H63.1609V75ZM63.1609 124.941H113.102V174.882H63.1609V124.941ZM63.1609 174.883H113.102V224.824H63.1609V174.883ZM63.1609 224.824H113.102V274.765H63.1609V224.824ZM63.1609 274.766H113.102V324.707H63.1609V274.766Z" fill="black"/>
<path d="M88.132 75H138.073V124.941H88.132V75Z" fill="#F7D046"/>
<path d="M287.898 124.941H337.839V174.882H287.898V124.941ZM88.132 124.941H138.073V174.882H88.132V124.941Z" fill="#F2A73B"/>
<path d="M212.985 124.941H262.926V174.882H212.985V124.941Z" fill="black"/>
<path d="M237.956 124.941H287.897V174.882H237.956V124.941ZM138.073 124.941H188.014V174.882H138.073V124.941Z" fill="#F2A73B"/>
<path d="M188.015 174.883H237.956V224.824H188.015V174.883ZM237.956 174.883H287.897V224.824H237.956V174.883ZM138.073 174.883H188.015V224.824H138.073V174.883Z" fill="#EE792F"/>
<path d="M163.044 224.824H212.985V274.765H163.044V224.824Z" fill="black"/>
<path d="M188.015 224.824H237.956V274.765H188.015V224.824Z" fill="#EB5829"/>
<path d="M287.898 174.883H337.839V224.824H287.898V174.883ZM88.132 174.883H138.073V224.824H88.132V174.883Z" fill="#EE792F"/>
<path d="M262.927 224.824H312.868V274.765H262.927V224.824Z" fill="black"/>
<path d="M287.898 224.824H337.839V274.765H287.898V224.824Z" fill="#EB5829"/>
<path d="M262.927 274.766H312.868V324.707H262.927V274.766Z" fill="black"/>
<path d="M88.132 224.824H138.073V274.765H88.132V224.824Z" fill="#EB5829"/>
<path d="M287.898 274.766H337.839V324.707H287.898V274.766ZM88.132 274.766H138.073V324.707H88.132V274.766Z" fill="#EA3326"/>
</g>
<defs>
<clipPath id="clip0_13_7">
<rect width="275" height="250" fill="white" transform="translate(63 75)"/>
</clipPath>
</defs>
</svg>
